<?xml version="1.0" standalone="no"?>
<!DOCTYPE svg PUBLIC "-//W3C//DTD SVG 20010904//EN"
 "http://www.w3.org/TR/2001/REC-SVG-20010904/DTD/svg10.dtd">
<svg version="1.0" xmlns="http://www.w3.org/2000/svg"
 width="782.000000pt" height="782.000000pt" viewBox="0 0 782.000000 782.000000"
 preserveAspectRatio="xMidYMid meet">
<metadata>
Created by potrace 1.14, written by Peter Selinger 2001-2017
</metadata>
<g transform="translate(0.000000,782.000000) scale(0.100000,-0.100000)"
fill="#000000" stroke="none">
<path d="M0 3910 l0 -3910 1055 0 1055 0 0 3910 0 3910 -1055 0 -1055 0 0
-3910z"/>
<path d="M3080 7130 l0 -690 833 2 832 3 3 688 2 687 -835 0 -835 0 0 -690z"/>
<path d="M5710 3910 l0 -3910 1055 0 1055 0 0 3910 0 3910 -1055 0 -1055 0 0
-3910z"/>
<path d="M3080 4090 l0 -1560 833 2 832 3 0 1555 0 1555 -832 3 -833 2 0
-1560z"/>
<path d="M3080 870 l0 -870 835 0 835 0 -2 868 -3 867 -832 3 -833 2 0 -870z"/>
</g>
</svg>
