<?xml version="1.0" standalone="no"?>
<!DOCTYPE svg PUBLIC "-//W3C//DTD SVG 20010904//EN"
 "http://www.w3.org/TR/2001/REC-SVG-20010904/DTD/svg10.dtd">
<svg version="1.0" xmlns="http://www.w3.org/2000/svg"
 width="500.000000pt" height="500.000000pt" viewBox="0 0 500.000000 500.000000"
 preserveAspectRatio="xMidYMid meet">
<metadata>
Created by potrace 1.14, written by Peter Selinger 2001-2017
</metadata>
<g transform="translate(0.000000,500.000000) scale(0.100000,-0.100000)"
fill="#000000" stroke="none">
<path d="M2193 4985 c-347 -44 -682 -160 -978 -338 -537 -323 -946 -854 -1120
-1453 -65 -226 -95 -441 -95 -691 0 -664 244 -1268 703 -1740 365 -376 805
-616 1312 -718 169 -34 289 -45 482 -45 664 0 1268 244 1740 703 427 415 689
949 752 1529 16 140 13 412 -4 562 -90 769 -533 1454 -1198 1854 -275 165
-567 270 -907 328 -134 23 -538 28 -687 9z m1296 -1077 c222 -58 417 -224 516
-442 51 -111 68 -194 68 -326 -2 -351 -208 -636 -543 -751 -90 -31 -103 -33
-240 -34 -166 0 -227 12 -355 74 -198 94 -347 271 -417 491 -20 65 -23 95 -23
220 1 167 14 229 75 355 115 233 347 399 609 436 80 11 221 1 310 -23z m-1114
-412 c-20 -47 -52 -170 -60 -228 l-6 -48 -382 0 c-330 0 -386 -2 -405 -16
l-22 -15 0 -641 c0 -583 2 -643 17 -660 14 -16 33 -18 160 -18 78 0 143 -4
143 -8 0 -5 -12 -66 -26 -136 -14 -70 -24 -131 -22 -136 2 -4 113 56 248 136
l245 144 592 0 592 0 15 22 c13 18 16 52 16 158 l0 136 78 23 c42 12 112 40
155 61 l78 39 -3 -242 c-3 -225 -5 -245 -26 -290 -30 -66 -114 -151 -181 -184
l-56 -28 -590 -5 -590 -5 -335 -198 c-184 -109 -353 -203 -375 -209 -75 -20
-156 12 -202 81 -36 53 -38 94 -13 224 12 65 21 119 19 120 -2 1 -30 15 -61
31 -72 35 -121 89 -162 175 l-31 66 0 690 c0 515 3 700 12 730 35 114 127 209
238 245 55 17 94 19 507 19 l447 1 -14 -34z"/>
<path d="M3378 3213 l-178 -178 -95 95 c-89 89 -97 95 -136 95 -52 0 -89 -38
-89 -91 0 -30 14 -50 116 -159 141 -152 157 -165 202 -165 33 0 52 16 250 213
117 116 220 225 228 240 32 59 -14 127 -85 127 -33 0 -49 -13 -213 -177z"/>
</g>
</svg>
