<svg width="1030" height="183" viewBox="0 0 1030 183" fill="none" xmlns="http://www.w3.org/2000/svg">
<path d="M81.25 182.25C102.75 182.25 117 178.5 128.5 173.25V139.75C120 143.25 109 146.75 92 146.75C61 146.75 50.25 129.25 50.25 97.25V89.75C50.25 57.5 65.5 44.25 92.5 44.25C107 44.25 116.75 46.5 126.75 50.25V16C117.25 11.25 104 8.74999 83 8.74999C36.75 8.74999 5.43892e-07 31.75 5.43892e-07 93V98.75C5.43892e-07 155.75 30.25 182.25 81.25 182.25ZM150.002 179.25H192.752V85.5C197.752 83.5 205.752 81.25 212.502 81.25C224.252 81.25 228.752 84.75 228.752 95.25V179.25H271.252V83.5C271.252 58 257.252 48.25 233.252 48.25C217.002 48.25 203.752 52.75 193.752 60.75H192.752V0.499996H150.002V179.25ZM345.725 155C337.725 155 331.975 151.75 331.975 140.75C331.975 131.25 336.225 127.25 346.225 126.25L361.225 124.75V149.75C358.475 152.75 352.475 155 345.725 155ZM331.225 181.75C347.225 181.75 358.725 177.25 364.225 169.5H365.475L368.475 179.5H403.725V87.75C403.725 58.5 384.225 48.25 352.475 48.25C332.475 48.25 315.475 50.5 302.225 55.75V83.75C310.975 81.75 323.225 80 336.225 80C354.725 80 361.225 82.75 361.225 96.5V101.75L337.725 105.25C309.975 109 291.225 118 291.225 145.25C291.225 170 307.725 181.75 331.225 181.75ZM479.287 181.25C493.037 181.25 502.537 178.75 507.787 176.25V148.75C504.287 149.5 499.537 150 495.037 150C484.787 150 481.037 147.25 481.037 138.25V80.25H507.037V50.75H481.037V20.25H438.287V50.75H422.287V80.25H438.287V144.5C438.287 172.75 453.537 181.25 479.287 181.25ZM579.391 93.5V43.75H597.641C612.891 43.75 619.891 50 619.891 68.75C619.891 85.5 613.891 93.5 596.641 93.5H579.391ZM532.391 179.5H579.391V123.75H603.391C645.641 123.75 668.641 104.25 668.641 66.25C668.641 31 646.891 11.5 602.141 11.5H532.391V179.5ZM732.199 155C724.199 155 718.449 151.75 718.449 140.75C718.449 131.25 722.699 127.25 732.699 126.25L747.699 124.75V149.75C744.949 152.75 738.949 155 732.199 155ZM717.699 181.75C733.699 181.75 745.199 177.25 750.699 169.5H751.949L754.949 179.5H790.199V87.75C790.199 58.5 770.699 48.25 738.949 48.25C718.949 48.25 701.949 50.5 688.699 55.75V83.75C697.449 81.75 709.699 80 722.699 80C741.199 80 747.699 82.75 747.699 96.5V101.75L724.199 105.25C696.449 109 677.699 118 677.699 145.25C677.699 170 694.199 181.75 717.699 181.75ZM856.262 181.75C894.762 181.75 912.512 167 912.512 138.75C912.512 116.5 903.262 102.5 877.262 99L865.262 97.5C855.012 96 850.512 93.75 850.512 87.5C850.512 80.75 856.512 77.5 869.262 77.5C884.512 77.5 896.262 80.75 904.512 83.25V55C894.762 50.75 882.262 48.25 863.762 48.25C828.012 48.25 811.012 64 811.012 89.75C811.012 114.75 823.262 126.75 845.262 130L857.012 131.75C868.012 133 871.762 135.25 871.762 141.5C871.762 148.5 865.512 152.25 850.012 152.25C832.512 152.25 821.762 148.5 811.762 144.75V173.25C822.012 178.5 839.012 181.75 856.262 181.75ZM973.693 181.75C1012.19 181.75 1029.94 167 1029.94 138.75C1029.94 116.5 1020.69 102.5 994.693 99L982.693 97.5C972.443 96 967.943 93.75 967.943 87.5C967.943 80.75 973.943 77.5 986.693 77.5C1001.94 77.5 1013.69 80.75 1021.94 83.25V55C1012.19 50.75 999.693 48.25 981.193 48.25C945.443 48.25 928.443 64 928.443 89.75C928.443 114.75 940.693 126.75 962.693 130L974.443 131.75C985.443 133 989.193 135.25 989.193 141.5C989.193 148.5 982.943 152.25 967.443 152.25C949.943 152.25 939.193 148.5 929.193 144.75V173.25C939.443 178.5 956.443 181.75 973.693 181.75Z" fill="#549DFF"/>
</svg>
