<svg width="1204" height="332" viewBox="0 0 1204 332" fill="none" xmlns="http://www.w3.org/2000/svg">
<path d="M493 196.4C485.4 204.2 473 211 455.8 211C433.2 211 414.4 195.6 414.4 168.6C414.4 141.6 432.4 126 455.8 126C474 126 488.8 137 491.4 140.4L501.4 113.6C497.8 109.8 482.4 98 454 98C413.8 98 381.6 124.6 381.6 169.2C381.6 213.6 413.4 240.4 454 240.4C482.2 240.4 496.8 228.8 503.8 221.6L493 196.4ZM614.278 179.8C614.278 155.8 606.878 137.6 578.278 137.6C563.678 137.6 554.278 144.8 549.278 153.6C549.278 153.6 549.478 142.8 549.478 132.8V100H517.478V238H549.478V189.6C549.478 175 553.678 163.8 567.078 163.8C580.478 163.8 582.078 174.2 582.078 186.2V238H614.278V179.8ZM722.852 182.4C722.852 165.8 718.652 156.2 711.052 149C703.252 141.8 692.652 137.6 674.252 137.6C655.852 137.6 640.452 143.4 632.052 147.6L640.452 168.4C645.452 165.2 658.052 159.6 670.652 159.6C683.452 159.6 690.852 165 690.852 175.4V177.6L666.052 178.6C647.852 179.4 627.652 186.8 627.652 208.8C627.652 230.8 646.052 240.2 663.452 240.2C679.452 240.2 687.452 231.8 691.652 227.6L692.252 238H722.852V182.4ZM691.052 210.8C689.052 214.2 683.252 219.8 674.652 219.8C665.852 219.8 659.652 215.2 659.652 207.6C659.652 200.2 665.452 196 675.252 195.6L691.052 194.6V210.8ZM801.455 139.6H779.655V112.8H747.455V139.6H733.455V163.8H747.455V202C747.455 217 749.455 225.2 754.455 231C759.455 236.8 767.055 240.2 778.455 240.2C790.055 240.2 798.855 237.6 801.255 237L799.655 212C799.655 212 795.055 213.8 790.055 213.8C785.855 213.8 783.855 213 782.455 211.4C780.855 209.6 779.655 207.6 779.655 199.2V163.8H801.455V139.6ZM916.134 143.4C916.134 128.6 910.934 118 901.734 110.4C892.534 102.8 879.934 100 865.734 100H816.334V238H848.734V187H865.734C879.934 187 892.534 184.2 901.734 176.6C910.934 168.8 916.134 158.2 916.134 143.4ZM883.334 143.4C883.334 150.4 880.534 155.4 876.734 158.2C872.734 161 868.134 162 861.134 162H848.534V125H861.134C868.134 125 872.734 126 876.734 128.8C880.534 131.6 883.334 136.4 883.334 143.4ZM1015.43 182.4C1015.43 165.8 1011.23 156.2 1003.63 149C995.83 141.8 985.23 137.6 966.83 137.6C948.43 137.6 933.03 143.4 924.63 147.6L933.03 168.4C938.03 165.2 950.63 159.6 963.23 159.6C976.03 159.6 983.43 165 983.43 175.4V177.6L958.63 178.6C940.43 179.4 920.23 186.8 920.23 208.8C920.23 230.8 938.63 240.2 956.03 240.2C972.03 240.2 980.03 231.8 984.23 227.6L984.83 238H1015.43V182.4ZM983.63 210.8C981.63 214.2 975.83 219.8 967.23 219.8C958.43 219.8 952.23 215.2 952.23 207.6C952.23 200.2 958.03 196 967.83 195.6L983.63 194.6V210.8ZM1110.43 207.6C1110.43 197.2 1105.63 190.8 1102.43 187.6C1099.03 184.4 1094.03 181.8 1089.63 180.2C1085.43 178.6 1082.43 177.6 1075.63 175.6C1068.83 173.6 1061.23 171.2 1061.23 166C1061.23 160.8 1065.43 158.8 1073.03 158.8C1081.03 158.8 1092.23 164 1097.83 168.4L1108.23 149.6C1102.63 145 1091.03 137.4 1070.43 137.4C1049.83 137.4 1033.03 149.2 1033.03 168.4C1033.03 186 1045.23 192.2 1049.83 194.2C1054.43 196.2 1060.03 197.8 1063.83 198.8C1067.43 200 1081.83 203.2 1081.83 209.6C1081.83 216 1076.23 218 1068.23 218C1060.23 218 1047.03 212.8 1039.03 206L1027.03 225C1038.23 235.6 1053.83 240.2 1068.63 240.2C1081.83 240.2 1091.63 237.2 1098.83 231.6C1106.03 225.8 1110.43 217.8 1110.43 207.6ZM1198.71 207.6C1198.71 197.2 1193.91 190.8 1190.71 187.6C1187.31 184.4 1182.31 181.8 1177.91 180.2C1173.71 178.6 1170.71 177.6 1163.91 175.6C1157.11 173.6 1149.51 171.2 1149.51 166C1149.51 160.8 1153.71 158.8 1161.31 158.8C1169.31 158.8 1180.51 164 1186.11 168.4L1196.51 149.6C1190.91 145 1179.31 137.4 1158.71 137.4C1138.11 137.4 1121.31 149.2 1121.31 168.4C1121.31 186 1133.51 192.2 1138.11 194.2C1142.71 196.2 1148.31 197.8 1152.11 198.8C1155.71 200 1170.11 203.2 1170.11 209.6C1170.11 216 1164.51 218 1156.51 218C1148.51 218 1135.31 212.8 1127.31 206L1115.31 225C1126.51 235.6 1142.11 240.2 1156.91 240.2C1170.11 240.2 1179.91 237.2 1187.11 231.6C1194.31 225.8 1198.71 217.8 1198.71 207.6Z" fill="#3A3A3A"/>
<path d="M62.25 254.188H98.5625V284.275L136.431 254.188H269.75C275.456 254.188 280.125 249.519 280.125 243.812V88.1875C280.125 82.4812 275.456 77.8125 269.75 77.8125H62.25C56.5437 77.8125 51.875 82.4812 51.875 88.1875V243.812C51.875 249.519 56.5437 254.188 62.25 254.188Z" fill="#B8BDC5"/>
<path d="M166 186.75C174.595 186.75 181.562 179.782 181.562 171.188C181.562 162.593 174.595 155.625 166 155.625C157.405 155.625 150.438 162.593 150.438 171.188C150.438 179.782 157.405 186.75 166 186.75Z" fill="white"/>
<path d="M223.062 186.75C231.657 186.75 238.625 179.782 238.625 171.188C238.625 162.593 231.657 155.625 223.062 155.625C214.468 155.625 207.5 162.593 207.5 171.188C207.5 179.782 214.468 186.75 223.062 186.75Z" fill="white"/>
<path d="M108.938 186.75C117.532 186.75 124.5 179.782 124.5 171.188C124.5 162.593 117.532 155.625 108.938 155.625C100.343 155.625 93.375 162.593 93.375 171.188C93.375 179.782 100.343 186.75 108.938 186.75Z" fill="white"/>
<path d="M243.812 145.25C272.462 145.25 295.688 122.025 295.688 93.375C295.688 64.7252 272.462 41.5 243.812 41.5C215.163 41.5 191.938 64.7252 191.938 93.375C191.938 122.025 215.163 145.25 243.812 145.25Z" fill="url(#paint0_radial_115_157)"/>
<path d="M223.581 93.8938L238.106 108.938L264.044 83" stroke="white" stroke-width="8" stroke-miterlimit="10" stroke-linecap="square"/>
<defs>
<radialGradient id="paint0_radial_115_157" cx="0" cy="0" r="1" gradientUnits="userSpaceOnUse" gradientTransform="translate(295.687 41.5) rotate(90) scale(103.75)">
<stop stop-color="#547FFF"/>
<stop offset="0.192708" stop-color="#5487FF"/>
<stop offset="0.78125" stop-color="#549BFF"/>
<stop offset="1" stop-color="#54A4FF"/>
</radialGradient>
</defs>
</svg>
