<svg width="24px" height="24px" viewBox="0 0 24 24" version="1.1" xmlns="http://www.w3.org/2000/svg"
     xmlns:xlink="http://www.w3.org/1999/xlink">
  <path
    d="M12.2 5.867c1.878 0 3.145.81 3.867 1.489L18.889 4.6C17.156 2.989 14.9 2 12.2 2a9.993 9.993 0 00-8.933 5.511L6.5 10.022c.811-2.41 3.056-4.155 5.7-4.155z"
    fill="rgb(219, 68, 55)" fill-rule="evenodd"></path>
  <path
    d="M6.511 13.978A6.157 6.157 0 016.178 12c0-.689.122-1.355.322-1.978l-3.233-2.51A10.009 10.009 0 002.2 12c0 1.611.389 3.133 1.067 4.49l3.244-2.512z"
    fill="rgb(244, 180, 0)" fill-rule="evenodd"></path>
  <path
    d="M12.2 22c2.7 0 4.967-.889 6.622-2.422l-3.155-2.445c-.845.589-1.978 1-3.467 1-2.644 0-4.889-1.744-5.689-4.155l-3.233 2.51C4.922 19.756 8.289 22 12.2 22z"
    fill="rgb(15, 157, 88)" fill-rule="evenodd"></path>
  <path
    d="M21.8 12.222c0-.822-.066-1.422-.21-2.044H12.2v3.71h5.511c-.11.923-.71 2.312-2.044 3.245l3.155 2.445c1.89-1.745 2.978-4.311 2.978-7.356z"
    fill="rgb(66, 133, 244)" fill-rule="evenodd"></path>
</svg>
