<svg width="2153px" height="453px" viewBox="0 0 2153 453" version="1.1" xmlns="http://www.w3.org/2000/svg"
     xmlns:xlink="http://www.w3.org/1999/xlink">
  <!-- Generator: Sketch 49.3 (51167) - http://www.bohemiancoding.com/sketch -->
  <desc>Created with Sketch.</desc>
  <defs></defs>
  <g id="Otechie" stroke="none" stroke-width="1" fill="none" fill-rule="evenodd">
    <g id="otechie.com" transform="translate(-68.153325, -476.450000)" fill="white">
      <path
        d="M422.32,769.6 C422.32,871.6 347.32,929.2 245.32,929.2 C143.32,929.2 68.32,871.6 68.32,769.6 C68.32,667.6 143.32,610 245.32,610 C347.32,610 422.32,667.6 422.32,769.6 Z M287.32,767.8 C287.32,736 272.32,715 245.32,715 C218.32,715 203.32,736 203.32,767.8 C203.32,799 218.32,820 245.32,820 C272.32,820 287.32,799 287.32,767.8 Z M671.32,616 L671.32,715 L608.32,715 L608.32,799 C608.32,817 617.32,820 632.32,820 C647.32,820 662.32,815.8 662.32,815.8 L668.32,919 C656.32,922 623.32,929.2 584.32,929.2 C545.32,929.2 518.32,919 500.32,902.8 C482.32,886 473.32,859 473.32,814 L473.32,715 L431.32,715 L431.32,616 L473.32,616 L473.32,541 L608.32,541 L608.32,616 L671.32,616 Z M1013.32,763 C1013.32,781 1011.52,800.8 1011.52,800.8 L810.52,800.8 C815.32,829 845.32,835 869.32,835 C893.32,835 926.32,829 953.32,811 L1004.32,877 C989.32,889 947.32,929.2 849.52,929.2 C752.32,929.2 677.32,874.6 677.32,769.6 C677.32,664.6 755.32,610 851.32,610 C947.32,610 1013.32,670 1013.32,763 Z M810.52,730 L888.52,730 C887.32,709 872.32,694 849.52,694 C827.32,694 812.32,709 810.52,730 Z M1284.52,799 L1308.52,901 C1308.52,901 1272.52,929.2 1197.52,929.2 C1107.52,929.2 1029.52,871.6 1029.52,769.6 C1029.52,667.6 1107.52,610 1197.52,610 C1266.52,610 1305.52,634 1305.52,634 L1284.52,736 C1272.52,727 1248.52,715 1218.52,715 C1188.52,715 1162.72,733 1162.72,767.8 C1162.72,802 1185.52,820 1221.52,820 C1257.51171,820 1284.50757,799.009669 1284.52,799.000003 L1284.52,799 Z M1284.52,799 C1284.52,799 1284.52,799 1284.52,799 Z M1672.72,742 L1672.72,922 L1537.72,922 L1537.72,772 C1537.72,742 1534.72,719.2 1506.52,719.2 C1477.72,719.2 1474.72,742 1474.72,772 L1474.72,922 L1339.72,922 L1339.72,508 L1474.72,508 L1474.72,598 C1474.72,616 1473.52,655 1473.52,655 C1488.52,631 1513.72,610 1558.72,610 C1648.72,610 1672.72,667 1672.72,742 Z M1855.72,541 C1855.72,580 1827.52,605.2 1783.72,605.2 C1740.52,605.2 1711.72,580 1711.72,541 C1711.72,502 1740.52,476.8 1783.72,476.8 C1827.52,476.8 1855.72,502 1855.72,541 Z M1851.52,616 L1851.52,922 L1716.52,922 L1716.52,616 L1851.52,616 Z M2220.52,763 C2220.52,781 2218.72,800.8 2218.72,800.8 L2017.72,800.8 C2022.52,829 2052.52,835 2076.52,835 C2100.52,835 2133.52,829 2160.52,811 L2211.52,877 C2196.52,889 2154.52,929.2 2056.72,929.2 C1959.52,929.2 1884.52,874.6 1884.52,769.6 C1884.52,664.6 1962.52,610 2058.52,610 C2154.52,610 2220.52,670 2220.52,763 Z M2017.72,730 L2095.72,730 C2094.52,709 2079.52,694 2056.72,694 C2034.52,694 2019.52,709 2017.72,730 Z M2399.92,863.8 C2399.92,905.8 2369.92,928.6 2326.72,928.6 C2282.92,928.6 2252.92,905.8 2252.92,863.8 C2252.92,821.8 2282.92,798.4 2326.72,798.4 C2369.92,798.4 2399.92,821.8 2399.92,863.8 Z M2683.72,799 L2707.72,901 C2707.72,901 2671.72,929.2 2596.72,929.2 C2506.72,929.2 2428.72,871.6 2428.72,769.6 C2428.72,667.6 2506.72,610 2596.72,610 C2665.72,610 2704.72,634 2704.72,634 L2683.72,736 C2671.72,727 2647.72,715 2617.72,715 C2587.72,715 2561.92,733 2561.92,767.8 C2561.92,802 2584.72,820 2620.72,820 C2656.72,820 2683.72,799 2683.72,799 Z M3076.72,769.6 C3076.72,871.6 3001.72,929.2 2899.72,929.2 C2797.72,929.2 2722.72,871.6 2722.72,769.6 C2722.72,667.6 2797.72,610 2899.72,610 C3001.72,610 3076.72,667.6 3076.72,769.6 Z M2941.72,767.8 C2941.72,736 2926.72,715 2899.72,715 C2872.72,715 2857.72,736 2857.72,767.8 C2857.72,799 2872.72,820 2899.72,820 C2926.72,820 2941.72,799 2941.72,767.8 Z M3622.72,739 L3622.72,922 L3487.72,922 L3487.72,766 C3487.72,736 3481.72,719.2 3460.72,719.2 C3439.72,719.2 3433.72,736 3433.72,766 L3433.72,922 L3298.72,922 L3298.72,766 C3298.72,736 3292.72,719.2 3271.72,719.2 C3250.72,719.2 3244.72,736 3244.72,766 L3244.72,922 L3109.72,922 L3109.72,616 L3244.72,616 L3242.92,655 C3259.72,631 3286.72,610 3325.72,610 C3364.72,610 3400.72,619 3416.92,661 C3439.72,625 3466.72,610 3514.72,610 C3589.72,610 3622.72,658 3622.72,739 Z"></path>
    </g>
  </g>
</svg>
