<svg xmlns="http://www.w3.org/2000/svg" width="22" height="18" fill="none"><path fill="#111821" fill-rule="evenodd" d="M21.5 13.323a3.683 3.683 0 0 1-3.679 3.68H4.179A3.683 3.683 0 0 1 .5 13.322V3.681A3.683 3.683 0 0 1 4.179.002h13.642a3.683 3.683 0 0 1 3.679 3.68v9.641ZM4.179 1.003A2.682 2.682 0 0 0 1.5 3.68v9.642a2.682 2.682 0 0 0 2.679 2.68h13.642a2.682 2.682 0 0 0 2.679-2.68V3.681a2.682 2.682 0 0 0-2.679-2.679H4.179Zm6.475 9.57a.5.5 0 0 0 .692 0l1.416-1.354 5.192 4.976a.5.5 0 0 0 .692-.722l-5.16-4.945 5.228-4.998a.5.5 0 1 0-.691-.723l-5.582 5.336a.503.503 0 0 0-.048.045L11 9.52 9.614 8.195a.523.523 0 0 0-.062-.059L3.977 2.807a.5.5 0 1 0-.691.723l5.228 4.998-5.161 4.947a.5.5 0 1 0 .695.721l5.19-4.976 1.416 1.353Z" clip-rule="evenodd"/></svg>