<svg xmlns="http://www.w3.org/2000/svg" width="24" height="24" fill="none"><rect width="24" height="24" fill="#F1F1F1" rx="4"/><path fill="url(#a)" fill-rule="evenodd" d="M12 6c-3.38 0-6 2.476-6 5.82 0 1.75.717 3.26 1.884 4.305a.48.48 0 0 1 .162.342l.032 1.067a.48.48 0 0 0 .674.425l1.19-.526a.479.479 0 0 1 .321-.024c.547.15 1.13.231 1.737.231 3.38 0 6-2.476 6-5.82C18 8.476 15.38 6 12 6Z" clip-rule="evenodd"/><path fill="#fff" fill-rule="evenodd" d="m8.397 13.522 1.762-2.796a.9.9 0 0 1 1.302-.24l1.402 1.051a.36.36 0 0 0 .433-.001l1.894-1.437c.252-.192.582.11.413.379l-1.763 2.796a.9.9 0 0 1-1.301.24l-1.402-1.051a.36.36 0 0 0-.434.001L8.81 13.901c-.252.192-.582-.11-.413-.379Z" clip-rule="evenodd"/><defs><radialGradient id="a" cx="0" cy="0" r="1" gradientTransform="translate(8.31 17.936) scale(13.0752)" gradientUnits="userSpaceOnUse"><stop stop-color="#09F"/><stop offset=".61" stop-color="#A033FF"/><stop offset=".935" stop-color="#FF5280"/><stop offset="1" stop-color="#FF7061"/></radialGradient></defs></svg>