<svg xmlns="http://www.w3.org/2000/svg" width="24" height="25" fill="none"><g clip-path="url(#a)"><rect width="24" height="24" y=".001" fill="#1DA1F2" rx="4"/><path fill="#fff" d="M18 8.352a4.945 4.945 0 0 1-1.414.386A2.461 2.461 0 0 0 17.67 7.38a4.925 4.925 0 0 1-1.564.595 2.465 2.465 0 0 0-1.796-.774 2.458 2.458 0 0 0-2.399 3.012A7 7 0 0 1 6.836 7.65a2.451 2.451 0 0 0 .762 3.275 2.462 2.462 0 0 1-1.115-.307v.031c0 1.189.848 2.18 1.974 2.406a2.49 2.49 0 0 1-1.111.042 2.462 2.462 0 0 0 2.3 1.703A4.952 4.952 0 0 1 6 15.816a6.982 6.982 0 0 0 3.773 1.103c4.53 0 7.006-3.738 7.006-6.98 0-.105-.003-.212-.008-.317A4.993 4.993 0 0 0 18 8.353L18 8.352Z"/></g><defs><clipPath id="a"><path fill="#fff" d="M0 4a4 4 0 0 1 4-4h16a4 4 0 0 1 4 4v16.001a4 4 0 0 1-4 4H4a4 4 0 0 1-4-4v-16Z"/></clipPath></defs></svg>