<svg xmlns="http://www.w3.org/2000/svg" width="24" height="24" fill="none"><rect width="24" height="24" fill="#00E676" rx="4"/><path fill="#fff" fill-rule="evenodd" d="M16.201 7.745A5.89 5.89 0 0 0 11.996 6C8.72 6 6.05 8.669 6.048 11.944c0 1.05.274 2.07.793 2.974L6 18l3.153-.827a5.95 5.95 0 0 0 2.843.724h.003c3.275 0 5.944-2.668 5.947-5.947A5.924 5.924 0 0 0 16.2 7.745Zm-4.205 9.146c-.89 0-1.76-.24-2.518-.69l-.18-.108-1.87.49.5-1.825-.118-.188a4.92 4.92 0 0 1-.755-2.628 4.949 4.949 0 0 1 4.944-4.938c1.32 0 2.56.516 3.495 1.448a4.917 4.917 0 0 1 1.445 3.495 4.951 4.951 0 0 1-4.943 4.944Zm2.711-3.7a26.999 26.999 0 0 0-1.015-.485c-.137-.049-.236-.074-.334.074-.1.148-.384.484-.47.581-.085.1-.174.112-.322.037-.148-.074-.627-.23-1.195-.738a4.525 4.525 0 0 1-.827-1.03c-.085-.148-.008-.227.066-.301.066-.066.148-.174.223-.26.074-.085.1-.148.148-.248.048-.1.025-.185-.012-.26-.037-.073-.333-.806-.459-1.103-.12-.29-.242-.25-.333-.253-.086-.006-.186-.006-.285-.006-.1 0-.26.037-.397.185-.136.148-.519.508-.519 1.24 0 .733.534 1.437.608 1.537.074.1 1.046 1.6 2.537 2.244.354.154.63.245.847.314.356.114.678.096.935.06.285-.043.878-.36 1.004-.708.122-.348.122-.644.085-.707-.037-.063-.137-.1-.285-.174Z" clip-rule="evenodd"/></svg>